<svg class="ti col" viewBox="0 0 200 200" xmlns="http://www.w3.org/2000/svg"><path class="c-tan" transform="translate(0.000000,200.000000) scale(0.100000,-0.100000)" d="M303 1515 c-17-19-16-35 2-35 8 0 15 5 15 10 0 6 70 10 190 10 120 0 190-4 190-10 0-5 7-10 15-10 19 0 19 17 1 36-21 21-395 20-413-1z M1283 1515 c-17-19-16-35 2-35 8 0 15 5 15 10 0 6 70 10 190 10 120 0 190-4 190-10 0-5 7-10 15-10 19 0 19 17 1 36-21 21-395 20-413-1z M352 1398 c5-99 311-99 316 0 2 51 0 62-13 62-11 0-15-12-15-50 0-50 0-50-130-50-130 0-130 0-130 50 0 38-4 50-15 50-13 0-15-11-13-62z M402 1428 c3-32 5-33 48-33 43 0 45 1 48 33 2 24-1 32-12 32-9 0-16-9-16-20 0-13-7-20-20-20-13 0-20 7-20 20 0 11-7 20-16 20-11 0-14-8-12-32z M510 1435 c0-16 6-25 15-25 8 0 15-7 15-16 0-21 59-15 74 8 14 23 0 35-24 20-32-19-50-15-50 13 0 16-6 25-15 25-9 0-15-9-15-25z M1332 1398 c3-63 3-63 158-63 155 0 155 0 158 63 2 51 0 62-13 62-11 0-15-12-15-50 0-50 0-50-130-50-130 0-130 0-130 50 0 38-4 50-15 50-13 0-15-11-13-62z M1460 1435 c0-28-18-32-50-13-24 15-38 3-24-20 15-23 74-29 74-8 0 9 7 16 15 16 9 0 15 9 15 25 0 16-6 25-15 25-9 0-15-9-15-25z M1570 1440 c0-13-7-20-20-20-11 0-20 7-20 15 0 8-7 15-16 15-12 0-15-6-10-22 3-13 6-27 6-31 0-5 19-7 43-5 44 3 76 68 33 68-9 0-16-9-16-20z M930 1371 c-14-5-71-29-127-54-57-25-103-42-103-36 0 5-7 9-15 9-9 0-15-9-15-25 0-36 22-33 152 27 162 73 186 74 335 8 150-67 173-71 173-36 0 16-5 26-15 26-8 0-15-4-15-9 0-5-51 13-112 41-117 52-201 68-258 49z M822 1255 c-147-66-152-70-152-130 0-64 73-51 140 25 8 9 126 60 139 60 6 0 11 7 11 15 0 8-7 15-16 15-23 0-134-51-134-61 0-5-6-9-13-9-7 0-29-11-49-25-45-31-48-31-48-2 0 22 226 137 269 137 6 0 11 7 11 15 0 25-29 17-158-40z M1020 1295 c0-8 6-15 13-15 43 0 267-114 267-137 0-29-3-29-48 2-20 14-42 25-49 25-7 0-13 4-13 9 0 10-111 61-134 61-9 0-16-7-16-15 0-8 5-15 11-15 13 0 132-51 139-60 62-75 140-84 140-16 0 53 0 53-138 115-144 64-172 71-172 46z M390 1275 c0-12 20-15 120-15 100 0 120 3 120 15 0 13-20 15-120 15-100 0-120-2-120-15z M1370 1275 c0-12 19-15 108-15 59 0 117-3 130-6 26-7 32 20 6 30-37 14-244 7-244-9z M456 1208 c-9-12-16-28-16-35 0-20 24-15 38 7 7 11 19 20 27 20 8 0 20-9 27-20 14-22 38-27 38-7 0 30-31 57-65 57-24 0-39-7-49-22z M1450 1210 c-22-22-27-50-7-50 7 0 18 9 25 20 7 11 19 20 27 20 8 0 20-9 27-20 16-25 38-26 38-2 0 47-73 69-110 32z M1600 1035 c0-8-4-15-10-15-6 0-10-87-10-240 0-207 2-240 15-240 13 0 15 33 15 240 0 153 4 240 10 240 6 0 10 7 10 15 0 8-7 15-15 15-8 0-15-7-15-15z M84 1025 c-57-39-66-483-11-531 44-38 1810-38 1854 0 32 28 50 421 22 488-19 47-89 81-89 43 0-8 6-15 14-15 61 0 90-435 33-488-38-36-1782-34-1815 1-56 59-26 487 34 487 8 0 14 7 14 15 0 19-29 19-56 0z M390 785 c0-202 2-235 15-235 13 0 15 33 15 235 0 202-2 235-15 235-13 0-15-33-15-235z M590 780 c0-207 2-240 15-240 13 0 15 33 15 240 0 207-2 240-15 240-13 0-15-33-15-240z"/><path class="c-amber" transform="translate(0.000000,200.000000) scale(0.100000,-0.100000)" d="M897 949 c-69-36-77-62-77-246 0-163 0-163 80-163 80 0 80 0 80 215 0 243 2 239-83 194z M1020 755 c0-215 0-215 80-215 80 0 80 0 80 163 0 186-8 210-79 247-84 42-81 49-81-195z"/><path class="c-green" transform="translate(0.000000,200.000000) scale(0.100000,-0.100000)" d="M310 1155 c0-113 2-135 15-135 13 0 15 22 15 135 0 113-2 135-15 135-13 0-15-22-15-135z M1660 1155 c0-113 2-135 15-135 13 0 15 22 15 135 0 113-2 135-15 135-13 0-15-22-15-135z M371 1135 c2-79 0-148-4-151-9-9-9-306-1-328 25-65 44-15 44 117 0 283-12 507-27 507-12 0-14-25-12-145z M1597 1088 c-14-363-10-450 16-446 23 3 41 293 21 338-4 8-6 77-5 153 3 114 1 137-11 137-12 0-16-33-21-182z M928 1166 c-47-17-166-88-207-122-31-25-31-27-31-119 0-73-3-94-15-99-12-4-15-30-15-146 0-140 0-140 55-140 55 0 55 0 55 138 0 239 66 336 230 337 162 0 215-75 211-300-2-175-2-175 63-175 66 0 66 0 66 140 0 111-3 141-15 147-10 6-15 33-17 103-3 94-3 94-50 130-131 99-249 137-330 106z M600 790 c0-207 2-240 15-240 13 0 15 33 15 240 0 207-2 240-15 240-13 0-15-33-15-240z M114 957 c-2-7-3-102-2-212 3-200 3-200 121-203 117-3 117-3 117 38 0 40 0 40-68 40-90 0-92 3-92 131 0 142-2 139 76 139 64 0 64 0 64 40 0 41-200 67-216 27z M1670 931 c0-40 0-40 68-43 67-3 67-3 70-113 4-160 7-155-83-155-75 0-75 0-75-40 0-40 0-40 120-40 120 0 120 0 118 213-3 212-3 212-110 215-108 3-108 3-108-37z M240 755 c0-95 0-95 45-95 45 0 45 0 45 95 0 95 0 95-45 95-45 0-45 0-45-95z M1682 758 c3-93 3-93 41-96 37-3 37-3 37 92 0 96 0 96-40 96-41 0-41 0-38-92z"/><path class="c-ink" transform="translate(0.000000,200.000000) scale(0.100000,-0.100000)" d="M296 1504 c-12-32-6-179 9-208 11-20 15-60 15-141 0-113 0-113-111-117-164-5-159 4-159-282 0-316-137-276 949-276 1091 0 951-40 951 273 0 290 6 280-159 285-111 4-111 4-111 117 0 81 4 121 15 141 15 29 21 176 9 208-12 31-422 23-430-9-13-51 0-196 19-209 40-30 10-21-105 30-170 74-206 74-377-1-92-41-119-49-105-34 20 22 33 162 20 214-8 32-418 40-430 9z m114-84 c0-17 7-20 40-20 33 0 40 3 40 20 0 28 28 25 32-2 3-20 9-23 43-23 32 0 42 5 50 23 17 39 37 27 33-20-3-43-3-43-138-43-135 0-135 0-138 43-3 37-1 42 17 42 14 0 21-6 21-20z m978-6 c16-35 85-32 90 4 4 27 32 30 32 2 0-17 7-20 40-20 33 0 40 3 40 20 0 14 7 20 21 20 18 0 20-5 17-42-3-43-3-43-138-43-135 0-135 0-138 43-4 49 17 59 36 16z m-216-185 c138-61 138-61 138-95 0-34 0-34-72 13-186 120-281 122-461 9-87-55-87-55-87-21 0 33 1 33 138 94 171 76 172 76 344 0z m-564-311 c-3-353-3-353-100-356-98-3-98-3-98 43 0 28-6 52-15 61-17 18-22 288-6 298 5 4 7 63 4 140-8 177-15 166 112 166 105 0 105 0 103-352z m997 200 c0-80 3-150 8-154 15-16 8-294-8-300-11-4-15-21-15-55 0-49 0-49-100-49-100 0-100 0-100 355 0 356 0 356 108 353 107-3 107-3 107-150z m-482-6 c150-81 162-95 165-202 2-70 7-97 17-103 12-6 15-33 15-127 0-120 0-120-45-120-45 0-45 0-45 123 0 73 4 127 11 134 66 66-100 218-241 218-185 0-250-88-250-337 0-138 0-138-35-138-39 0-58 232-20 246 12 5 15 26 15 99 0 108 1 109 131 186 134 80 168 82 282 21z m-813-182 c0-18-7-20-64-20-78 0-76 5-76-159 0-151 0-151 92-151 62 0 68-2 68-20 0-20-5-21-97-18-98 3-98 3-101 183-1 98 0 185 2 192 10 24 176 18 176-7z m650-175 c0-195 0-195-60-195-127 0-73 366 58 390 1 0 2-88 2-195z m180 122 c17-28 20-51 20-174 0-143 0-143-60-143-60 0-60 0-60 195 0 204 29 239 100 122z m728-124 c2-193 2-193-98-193-93 0-100 1-100 20 0 18 7 20 75 20 91 0 87-8 83 175-3 130-3 130-70 133-60 3-68 5-68 23 0 18 6 20 88 17 87-3 87-3 90-195z m-1558 2 c0-73-1-75-25-75-24 0-25 2-25 75 0 73 1 75 25 75 24 0 25-2 25-75z m1430-1 c0-66-2-75-17-72-29 5-32 148-3 148 18 0 20-6 20-76z M456 1198 c-11-16-16-46-16-100 0-78 0-78 65-78 65 0 65 0 65 78 0 94-15 122-65 122-24 0-39-7-49-22z M440 870 c0-100 0-100 65-100 65 0 65 0 65 100 0 100 0 100-65 100-65 0-65 0-65-100z M1446 1198 c-11-16-16-46-16-100 0-78 0-78 65-78 65 0 65 0 65 78 0 94-15 122-65 122-24 0-39-7-49-22z M1430 870 c0-100 0-100 65-100 65 0 65 0 65 100 0 100 0 100-65 100-65 0-65 0-65-100z"/></svg>