<svg class="ti col" viewBox="0 0 200 200" xmlns="http://www.w3.org/2000/svg"><path class="c-tan" transform="translate(0.000000,200.000000) scale(0.100000,-0.100000)" d="M340 1945 c0-13 80-15 660-15 580 0 660 2 660 15 0 13-80 15-660 15-580 0-660-2-660-15z M239 1922 c-30-15-58-37-63-48-5-11-19-25-30-30-23-10-63-83-72-131-10-50 18-42 34 10 8 23 24 56 38 74 13 17 24 36 24 42 0 6 5 11 10 11 6 0 28 13 51 29 22 16 53 33 70 36 32 7 40 35 10 35-10 0-43-13-72-28z M1670 1937 c0-9 12-18 29-22 17-3 48-20 70-36 23-16 45-29 51-29 5 0 10-5 10-11 0-6 11-25 24-42 14-18 30-51 38-74 7-24 19-43 27-43 32 0-27 147-66 165-12 5-24 17-26 26-10 38-157 100-157 66z M303 1820 c-24-10-43-26-43-35 0-20 13-19 52 5 44 26 1322 31 1368 5 32-18 50-19 50-1 0 51-1319 76-1427 26z M203 1728 c-52-95-22-1488 32-1488 20 0 19 8-5 55-31 61-31 1349 0 1410 32 63 7 84-27 23z M1750 1752 c0-4 9-25 20-47 29-57 31-1350 3-1412-28-58-90-103-143-103-11 0-20-7-20-15 0-9 9-15 25-15 28 0 95 30 95 42 0 4 7 8 16 8 9 0 18 9 21 20 3 11 9 20 13 20 46 0 62 1396 17 1478-16 28-47 45-47 24z M715 1716 c-58-18-85-35-85-51 0-20 12-19 54 6 21 12 62 23 96 26 41 4 60 10 60 19 0 18-69 18-125 0z M850 1708 c0-7 20-21 45-32 54-22 121-94 137-148 10-33 15-38 32-33 12 3 38 9 59 12 61 9 50 37-12 29-49-6-49-6-60 27-28 83-201 207-201 145z M60 1000 c0-589 2-670 15-670 13 0 15 81 15 670 0 589-2 670-15 670-13 0-15-81-15-670z M1910 1000 c0-589 2-670 15-670 13 0 15 81 15 670 0 589-2 670-15 670-13 0-15-81-15-670z M550 1578 c-24-52-25-78-5-78 8 0 15 6 15 13 0 7 9 30 20 52 24 47 25 55 5 55-9 0-25-19-35-42z M1170 1526 c0-11 9-16 28-16 97-1 232-136 232-232 0-18 5-28 15-28 34 0-1 127-54 190-54 67-221 131-221 86z M1377 1533 c-14-13-7-63 8-63 8 0 15-6 15-14 0-18 27-28 54-20 27 8 76 54 76 71 0 22-22 15-55-17-43-41-80-33-70 16 6 33-9 47-28 27z M520 1161 c0-319 0-319-30-348-16-15-30-33-30-40 0-6-5-13-10-15-33-11-75-178-45-178 10 0 15 10 15 26 0 43 52 146 92 184 42 38 63 690 23 690-13 0-15-42-15-319z M1484 1275 c-48-74 65-145 144-89 26 18 32 84 7 84-8 0-15 7-15 15 0 8-7 15-15 15-8 0-15-7-15-15 0-8 7-15 15-15 19 0 20-43 1-59-21-18-87-10-100 12-9 15-7 22 12 37 12 10 22 23 22 29 0 21-40 11-56-14z M1430 1203 c0-27-35-108-62-145-14-20-6-33 16-25 41 16 98 197 62 197-11 0-16-9-16-27z M1390 1020 c-36-36 7-140 57-140 22 0 14 24-17 54-45 44-31 84 24 70 19-4 26-2 26 9 0 32-61 36-90 7z M1275 991 c-27-14-51-28-53-32-1-3-30-1-65 3-125 16-112 23-115-64-3-75-2-77 31-111 38-40 87-141 87-181 0-16 5-26 15-26 30 0-12 167-45 178-5 2-10 9-10 16 0 7-11 22-25 34-42 37-37 137 6 128 17-3 35-6 38-6 4 0 5-27 3-60-4-50-2-60 12-60 9 0 16-7 16-15 0-8 7-15 15-15 8 0 15 7 15 15 0 8-7 15-15 15-19 0-21 80-3 98 17 17 47 15 54-3 11-29 36-18 29 13-5 25-1 30 40 50 25 12 45 29 45 37 0 20-16 17-75-14z M394 478 c8-56 57-152 79-156 24-5 21 12-8 56-14 21-31 61-37 90-16 66-44 74-34 10z M1160 500 c0-30-41-134-56-143-8-4-14-15-14-22 0-21 29-19 37 3 4 9 13 23 20 30 31 31 53 152 28 152-8 0-15-9-15-20z M70 307 c0-74 88-190 178-234 70-34 1412-52 1412-18 0 13-73 15-653 15-764 0-724-5-822 93-45 46-65 75-75 110-13 43-40 66-40 34z M1896 286 c-4-18-20-52-36-75-17-22-30-45-30-51 0-5-5-10-10-10-6 0-28-13-51-29-22-16-53-33-70-36-42-10-40-40 3-31 43 9 119 54 125 75 2 9 14 21 26 26 24 11 77 108 77 143 0 35-27 26-34-12z M1053 298 c-17-27-156-98-190-98-15 0-23-6-23-16 0-32 173 24 203 66 7 9 20 19 30 23 9 3 17 13 17 22 0 18-26 20-37 3z M530 265 c0-9 8-19 18-22 9-4 23-12 29-19 41-40 253-83 253-52 0 11-17 17-67 22-68 7-181 49-196 73-11 18-37 16-37-2z"/><path class="c-blue" transform="translate(0.000000,200.000000) scale(0.100000,-0.100000)" d="M723 1591 c-77-36-78-37-81-443-3-357-3-357-42-388-149-118-113-373 65-456 286-134 549 226 326 445-41 40-41 40-41 393 0 387-1 397-62 441-39 29-113 32-165 8z m115-624 c2-255 2-255 38-282 160-122 22-353-156-262-117 58-120 192-7 266 37 24 37 24 37 273 0 277 8 312 63 275 22-14 22-20 25-270z M746 609 c-52-41-24-119 44-119 44 0 70 26 70 71 0 30-40 69-70 69-10 0-29-9-44-21z"/><path class="c-amber" transform="translate(0.000000,200.000000) scale(0.100000,-0.100000)" d="M1083 1416 c-57-26-50-337 7-360 134-53 260 35 260 181 0 143-140 236-267 179z"/><path class="c-ink" transform="translate(0.000000,200.000000) scale(0.100000,-0.100000)" d="M307 1903 c-62-21-140-91-175-157-40-76-43-1410-3-1486 92-177 82-175 850-178 767-3 728-7 826 91 101 102 96 58 93 847-4 975 75 894-883 897-586 2-665 0-708-14z m1398-72 c129-60 125-28 125-832 0-950 104-843-817-847-946-3-843-107-843 848 0 794-3 772 125 831 62 29 1348 29 1410 0z M722 1674 c-143-53-162-114-162-529 0-331 0-331-31-361-280-266 74-714 425-537 209 105 261 357 109 526-34 38-34 38-31 125 3 98-5 92 115 76 187-24 338 221 239 390-68 116-164 152-323 120-30-6-32-4-44 35-36 121-182 197-297 155z m176-80 c61-45 62-54 62-442 0-353 0-353 41-393 234-229-45-606-346-465-180 84-217 356-65 476 39 31 39 31 42 388 3 406 4 407 81 443 54 25 145 22 185-7z m355-168 c146-60 148-311 3-377-49-22-133-25-181-5-50 21-56 354-7 380 34 19 142 20 185 2z M770 1211 c-6-12-10-115-10-264 0-244 0-244-37-268-103-67-108-180-11-239 167-102 310 116 154 235-36 27-36 27-36 279 0 254-3 276-37 276-7 0-17-9-23-19z m74-592 c61-48 25-139-54-139-58 0-80 23-80 81 0 44 36 79 80 79 15 0 39-9 54-21z M1158 1665 c-12-27 2-75 22-75 6 0 16 11 22 25 12 27-2 75-22 75-6 0-16-11-22-25z M1532 1254 c-18-13-21-19-11-30 15-19 63-18 79 1 25 30-33 54-68 29z M1192 898 c-25-25-7-86 22-75 23 9 30 34 18 63-13 27-22 30-40 12z"/></svg>