<svg class="ti col" viewBox="0 0 200 200" xmlns="http://www.w3.org/2000/svg"><path class="c-tan" transform="translate(0.000000,200.000000) scale(0.100000,-0.100000)" d="M255 1876 c-51-16-85-37-85-53 0-18 13-16 60 8 22 11 58 23 80 26 25 4 40 11 40 19 0 17-41 17-95 0z M1650 1876 c0-11 9-16 29-16 15 0 55-13 87-30 68-34 74-35 74-15 0 20-89 64-145 72-38 5-45 3-45-11z M1860 1765 c0-9 6-18 14-21 8-3 22-32 33-65 17-57 43-80 43-39 0 25-30 100-40 100-4 0-10 9-13 20-6 23-37 27-37 5z M75 1718 c-28-59-31-78-12-77 10 0 67 104 67 123 0 26-35-3-55-46z M40 1120 c0-447 2-510 15-510 13 0 15 63 15 510 0 447-2 510-15 510-13 0-15-63-15-510z M1930 1120 c0-429 2-490 15-490 13 0 15 61 15 490 0 429-2 490-15 490-13 0-15-61-15-490z M760 1533 c-67-26-59-133 10-133 27 0 25 23-2 35-45 20-24 75 28 75 15 0 24 6 24 15 0 15-30 19-60 8z M950 1516 c0-8 5-18 11-21 5-4 15-19 20-33 6-14 78-183 161-374 141-326 150-350 134-367-20-22-21-41-2-41 17 0 46 38 46 60 0 16-317 756-333 778-13 17-37 15-37-2z M890 1400 c0-5 11-35 25-66 25-56 25-56-105-309-128-249-152-315-115-315 8 0 15-7 15-15 0-8 7-15 15-15 8 0 15 7 15 15 0 8-7 15-15 15-32 0-11 53 117 306 132 260 132 260 103 327-24 57-55 89-55 57z M887 938 c-59-117-112-221-119-230-14-20-6-33 16-25 9 4 62 99 118 212 57 113 105 205 108 205 3 0 44-89 90-197 86-198 100-223 126-223 17 0 19 26 1 33-7 2-55 102-106 221-117 270-99 269-234 4z M1907 562 c-10-32-27-63-38-70-23-15-26-45-3-40 9 2 22 12 28 23 6 11 14 22 18 25 12 9 38 78 38 100 0 41-25 18-43-38z M50 585 c0-27 50-115 65-115 20 0 19 4-12 71-27 55-53 77-53 44z M1761 409 c-30-16-65-29-78-29-14 0-23-6-23-15 0-24 49-18 118 15 36 17 62 35 62 45 0 20-15 17-79-16z M170 415 c0-8 7-15 15-15 8 0 15-4 15-9 0-10 84-41 112-41 10 0 18 7 18 15 0 8-8 15-17 15-26 0-113 32-113 42 0 4-7 8-15 8-8 0-15-7-15-15z M360 303 c0-75 27-149 57-160 10-4 20-10 23-15 12-17 70-21 70-5 0 9-13 17-33 21-53 10-87 72-87 158 0 54-3 68-15 68-12 0-15-14-15-67z M645 210 c-33-34-70-63-82-66-26-7-31-34-7-34 36 0 174 117 174 147 0 27-27 11-85-47z"/><path class="c-green" transform="translate(0.000000,200.000000) scale(0.100000,-0.100000)" d="M330 1875 c0-13 81-15 670-15 589 0 670 2 670 15 0 13-81 15-670 15-589 0-670-2-670-15z M290 1743 c-109-41-110-46-110-623 0-624-1-618 193-630 119-7 127-16 127-146 0-130 10-129 162 24 118 117 118 117 586 122 636 7 567-69 567 630 0 582 2 565-86 610-38 20-1390 31-1439 13z m748-168 c56-58 377-800 368-850-39-207-242-179-342 48-58 133-60 133-134-13-84-165-166-212-259-148-113 77-110 103 48 416 152 302 146 282 79 282-171 0-237 202-96 290 67 42 288 25 336-25z M800 1525 c0-12 15-15 75-15 60 0 75 3 75 15 0 12-15 15-75 15-60 0-75-3-75-15z"/><path class="c-ink" transform="translate(0.000000,200.000000) scale(0.100000,-0.100000)" d="M242 1819 c-65-32-99-66-135-133-40-75-33-1070 8-1145 48-87 130-142 233-156 52-7 52-7 52-73 0-77 21-122 69-147 64-32 81-24 213 100 121 114 121 114 562 117 496 3 503 4 589 93 85 87 82 64 82 645 0 789 74 730-916 730-696 0-696 0-757-31z m1497-79 c88-45 86-27 86-620 0-711 69-633-567-640-468-5-468-5-586-122-159-160-182-163-182-24 0 130-8 139-127 146-195 12-193 4-193 640 0 588 1 592 110 633 49 18 1421 7 1459-13z M713 1591 c-138-86-73-271 95-271 73 0 72 0-79-301-144-287-146-295-92-359 94-113 188-76 283 110 81 160 89 161 154 13 93-212 245-251 311-79 21 55-280 781-357 861-48 50-250 66-315 26z m265-54 c27-14 352-750 352-796 0-49-25-71-80-71-64 0-63-2-155 213-44 103-82 187-85 187-3 0-50-89-105-198-100-197-100-197-149-200-125-8-119 43 40 359 151 301 153 359 13 359-105 0-149 71-84 135 28 29 206 37 253 12z"/></svg>