<svg class="ti col" viewBox="0 0 200 200" xmlns="http://www.w3.org/2000/svg"><path class="c-tan" transform="translate(0.000000,200.000000) scale(0.100000,-0.100000)" d="M920 1945 c0-12 16-15 80-15 64 0 80 3 80 15 0 12-16 15-80 15-64 0-80-3-80-15z M823 1931 c-59-22-113-52-113-63 0-4-6-8-13-8-16 0-47-32-47-48 0-20 27-13 47 11 21 26 133 84 181 93 33 7 45 34 15 34-10-1-41-9-70-19z M1090 1937 c0-8 13-17 33-21 43-8 159-67 175-88 7-10 20-18 28-18 21 0 14 30-11 44-10 6-26 17-34 25-45 41-191 86-191 58z M602 1778 c-7-7-12-16-12-20 0-5-9-18-20-30-41-44-86-198-58-198 10 0 18 13 21 35 7 45 66 166 89 183 21 15 24 42 5 42-7 0-18-5-25-12z M1360 1776 c0-9 9-21 20-28 11-7 20-18 20-25 0-6 4-13 8-15 11-4 62-134 62-158 0-11 7-20 15-20 27 0-15 168-45 178-5 2-10 10-10 18 0 8-3 14-8 14-4 0-12 10-17 22-12 27-45 37-45 14z M1480 1465 c0-55 0-55 40-55 29 0 40 4 40 15 0 9-9 15-25 15-22 0-25 4-25 40 0 29-4 40-15 40-12 0-15-13-15-55z M490 1475 c0-31-3-35-25-35-16 0-25-6-25-15 0-11 11-15 40-15 40 0 40 0 40 50 0 38-4 50-15 50-10 0-15-11-15-35z M373 1418 c-13-6-23-15-23-20 0-4-6-8-13-8-17 0-60-46-83-90-45-83-29-1100 16-1100 6 0 10-7 10-15 0-8 7-15 15-15 8 0 15 7 15 15 0 8-4 15-8 15-45 0-67 981-24 1072 25 53 74 104 116 119 20 7 36 19 36 26 0 15-26 16-57 1z M1570 1416 c0-8 12-17 26-20 38-10 111-82 129-129 29-78 18-976-14-1040-35-71-131-147-185-147-9 0-16-7-16-15 0-8 8-15 18-15 24 0 122 47 122 58 0 5 9 12 20 15 11 3 23 13 27 23 3 10 15 26 24 35 54 54 76 1024 25 1119-44 83-176 170-176 116z M350 115 c0-17 91-65 123-65 9 0 17 7 17 15 0 8-8 15-17 15-10 0-38 11-62 25-50 29-61 31-61 10z M520 55 c0-13 60-15 480-15 420 0 480 2 480 15 0 13-60 15-480 15-420 0-480-2-480-15z"/><path class="c-blue" transform="translate(0.000000,200.000000) scale(0.100000,-0.100000)" d="M889 1827 c-281-80-377-476-179-742 59-80 100-172 100-227 0-27 2-28 50-28 58 0 59 8 39 231-14 159-18 171-57 181-59 16-80 77-39 116 45 43 100 20 113-46 11-52 158-50 168 3 12 62 74 85 114 42 39-42 19-100-40-115-39-10-43-23-57-188-19-224-19-224 39-224 48 0 50 1 50 28 0 55 41 147 100 227 265 356-4 854-401 742z M935 1188 c14-109 25-229 25-290 0-68 0-68 40-68 40 0 40 0 40 63 0 59 13 205 26 295 6 42 6 42-65 42-72 0-72 0-66-42z"/><path class="c-green" transform="translate(0.000000,200.000000) scale(0.100000,-0.100000)" d="M423 1305 c-75-32-74-23-71-551 4-654-68-589 648-589 716 1 644-64 648 589 3 531 4 519-74 552-68 28-84 19-105-63-22-87-32-108-99-198-77-104-82-121-87-275-5-167-6-174-40-189-15-7-43-31-62-53-94-109-273-106-367 6-21 25-43 46-49 46-35 1-40 18-46 172-7 174-11 188-89 293-67 90-77 111-99 198-21 81-41 92-108 62z M820 700 c0-40 0-40 180-40 180 0 180 0 180 40 0 40 0 40-180 40-180 0-180 0-180-40z M900 576 c0-18 51-36 100-36 49 0 100 18 100 36 0 11-21 14-100 14-79 0-100-3-100-14z"/><path class="c-ink" transform="translate(0.000000,200.000000) scale(0.100000,-0.100000)" d="M910 1913 c-203-43-361-227-377-440-6-73-6-73-37-73-85 0-172-57-207-135-17-37-19-76-19-494 0-719-35-686 729-686 768 0 731-34 731 684 0 423-2 459-19 496-37 79-120 135-201 135-40 0-40 0-40 45 0 286-287 526-560 468z m274-102 c237-117 297-493 116-736-59-80-100-172-100-227 0-28-1-28-60-28-69 0-70 3-49 244 14 165 17 176 59 190 56 18 72 59 37 93-36 37-77 19-91-40-14-54-179-59-190-5-13 67-56 86-97 42-30-32-12-73 41-90 41-14 45-23 59-183 22-240 20-251-49-251-59 0-60 0-60 28 0 55-41 147-100 227-171 229-126 597 88 722 109 64 282 71 396 14z m-643-558 c22-87 32-108 99-198 78-105 82-119 89-293 6-154 11-171 46-172 6 0 28-21 49-46 93-111 255-114 347-6 19 22 47 46 62 53 34 15 35 22 40 189 5 154 10 171 87 275 67 90 77 111 99 198 21 82 48 95 125 63 78-33 77-20 74-562-4-666 70-598-658-599-728 0-654-67-658 599-3 539-4 528 71 561 75 34 107 18 128-62z m534-75 c-19-169-25-238-25-295 0-63 0-63-50-63-50 0-50 0-50 68 0 37-7 126-15 197-8 72-15 136-15 143 0 8 23 12 81 12 82 0 82 0 74-62z m115-478 c0-50 0-50-190-50-190 0-190 0-190 50 0 50 0 50 190 50 190 0 190 0 190-50z m-80-124 c0-29-40-46-110-46-70 0-110 17-110 46 0 24 1 24 110 24 109 0 110 0 110-24z"/></svg>