<svg class="ti col" viewBox="0 0 200 200" xmlns="http://www.w3.org/2000/svg"><path class="c-tan" transform="translate(0.000000,200.000000) scale(0.100000,-0.100000)" d="M217 1936 c-47-17-108-64-115-88-2-10-8-18-12-18-9 0-40-74-40-95 0-8 7-15 15-15 8 0 15 7 15 15 0 51 57 121 132 163 41 22 41 22 788 22 747 0 747 0 788-22 75-42 132-112 132-163 0-8 7-15 15-15 8 0 15 7 15 15 0 23-31 95-41 95-5 0-9 6-9 14 0 19-55 65-105 87-53 24-1511 28-1578 5z M40 1000 c0-624 2-710 15-710 13 0 15 86 15 710 0 624-2 710-15 710-13 0-15-86-15-710z M1930 995 c0-629 2-715 15-715 13 0 15 86 15 715 0 629-2 715-15 715-13 0-15-86-15-715z M640 995 c0-202 2-235 15-235 13 0 15 33 15 235 0 202-2 235-15 235-13 0-15-33-15-235z M1330 995 c0-202 2-235 15-235 13 0 15 33 15 235 0 202-2 235-15 235-13 0-15-33-15-235z M50 260 c0-46 76-160 107-160 7 0 13-4 13-9 0-38 55-41 830-41 775 0 830 3 830 41 0 5 6 9 13 9 29 0 107 113 107 155 0 30-25 14-43-28-24-57-75-110-126-130-64-26-1499-26-1563 0-60 24-136 116-138 166 0 24-30 21-30-3z"/><path class="c-amber" transform="translate(0.000000,200.000000) scale(0.100000,-0.100000)" d="M760 1575 c0-235 0-235 240-235 240 0 240 0 240 235 0 235 0 235-240 235-240 0-240 0-240-235z M190 1000 c0-240 0-240 235-240 235 0 235 0 235 240 0 240 0 240-235 240-235 0-235 0-235-240z M1340 1000 c0-240 0-240 235-240 235 0 235 0 235 240 0 240 0 240-235 240-235 0-235 0-235-240z M760 425 c0-235 0-235 240-235 240 0 240 0 240 235 0 235 0 235-240 235-240 0-240 0-240-235z"/><path class="c-green" transform="translate(0.000000,200.000000) scale(0.100000,-0.100000)" d="M249 1793 c-54-33-59-54-59-262 0-191 0-191 240-191 240 0 240 0 240 235 0 235 0 235-197 235-165 0-202-3-224-17z M1330 1575 c0-235 0-235 240-235 240 0 240 0 240 191 0 283 4 279-284 279-196 0-196 0-196-235z M760 1000 c0-240 0-240 240-240 240 0 240 0 240 240 0 240 0 240-240 240-240 0-240 0-240-240z M190 470 c0-285-5-280 285-280 195 0 195 0 195 235 0 235 0 235-240 235-240 0-240 0-240-190z M1330 425 c0-235 0-235 195-235 290 0 285-5 285 280 0 190 0 190-240 190-240 0-240 0-240-235z"/><path class="c-ink" transform="translate(0.000000,200.000000) scale(0.100000,-0.100000)" d="M232 1879 c-144-72-143-66-140-900 3-792-2-738 80-816 68-66 33-63 828-63 795 0 760-3 828 63 82 78 77 21 77 837 0 838 3 822-152 887-63 26-1467 19-1521-8z m458-304 c0-255 0-255-260-255-260 0-260 0-260 211 0 308-10 298 303 299 217 0 217 0 217-255z m570 0 c0-255 0-255-260-255-260 0-260 0-260 255 0 255 0 255 260 255 260 0 260 0 260-255z m510 239 c56-34 60-52 60-283 0-211 0-211-260-211-260 0-260 0-260 255 0 255 0 255 216 255 182 0 220-3 244-16z m-1082-816 c2-258 2-258-258-258-260 0-260 0-260 260 0 260 0 260 258 258 257-3 257-3 260-260z m572 2 c0-260 0-260-260-260-260 0-260 0-260 260 0 260 0 260 260 260 260 0 260 0 260-260z m570 0 c0-260 0-260-260-260-260 0-260 0-260 253 0 140 3 257 7 260 3 4 120 7 260 7 253 0 253 0 253-260z m-1140-575 c0-255 0-255-215-255-316 0-305-11-305 300 0 210 0 210 260 210 260 0 260 0 260-255z m570 0 c0-255 0-255-260-255-260 0-260 0-260 255 0 255 0 255 260 255 260 0 260 0 260-255z m570 45 c0-311 11-300-305-300-215 0-215 0-215 255 0 255 0 255 260 255 260 0 260 0 260-210z"/></svg>